#tb 0: 1/25
0,          1,          1,        1,   518400, 0x0fbb4e71
0,          3,          3,        1,   518400, 0x4b816734
0,          5,          5,        1,   518400, 0x0c350f19
0,          7,          7,        1,   518400, 0xda049cb6
0,          9,          9,        1,   518400, 0x1f3e7bb9
0,         11,         11,        1,   518400, 0x995cbe66
0,         13,         13,        1,   518400, 0x07f7e65c
0,         15,         15,        1,   518400, 0xfcb7487f
0,         17,         17,        1,   518400, 0xb080f48a
0,         19,         19,        1,   518400, 0x3ef5b7e4
0,         21,         21,        1,   518400, 0xa1518e1c
0,         23,         23,        1,   518400, 0xb36f1cc9
0,         25,         25,        1,   518400, 0x86ea48af
0,         27,         27,        1,   518400, 0xe42373b7
0,         29,         29,        1,   518400, 0xa8435828
0,         31,         31,        1,   518400, 0xc942ea0e
0,         33,         33,        1,   518400, 0xcc597514
